<svg xmlns="http://www.w3.org/2000/svg" version="1.1" width="600px" height="600px" xlink="http://www.w3.org/1999/xlink" style="overflow:hidden!important;"><g id="svga-group-wrapper" transform="scale(3 3)"><g id="svga-group-backs-single"></g><g id="svga-group-subwrapper" transform="matrix(0.84999948 0 0 0.84999948 14.980551414553048 17.30177597316333)"><g id="svga-group-hair-back" ><path id="SvgjsPath4827" d="M156.79,87.186c1.245-4.645,2.08-9.934,2.312-14.214h11.529c1.834,3.925,2.658,6.08,3.9,7.933c-1.84-0.72-3.965-1.467-7.809-4.972c0.318,0.854,4.324,12.487,4.587,14.493c-3.391-2.793-4.635-5.812-6.713-8.063c1.206,8.371,1.873,12.796-2.654,23.504C159.181,90.365,157.449,87.622,156.79,87.186zM34.506,74.599c-0.217,8.956-2.898,15.556-12.347,23.446c2.96-0.94,5.61-2.43,10.271-5.06c0.8-2.13,1.51-4.561,1.79-6.8c-0.82,7.9-5.598,13.347-1.274,22.677c0.606-7.783,3.254-13.309,10.093-17.755c-0.216,0.149-0.716,0.513-1.372,1.089c0.747-0.612,1.527-1.188,2.333-1.728c-1.567-4.835-2.861-12.029-2.909-15.869H34.506z M33.478,81.232c-1.485-1.845-2.84-4.664-3.422-6.633h4.441C34.344,75.986,34.038,79.067,33.478,81.232z" fill="#1b141c" stroke-width="none" opacity="1"></path><path id="SvgjsPath4828" d="M173.749,80.275c-1.258-1.878-2.29-4.05-3.289-6.204h1.082c1.02,2.248,2.179,5.013,3.497,7.194c-3.51-1.04-5.28-2.09-7.91-4.72c3.17,7.87,3.66,11.71,5.19,14.94c-4.49-2.72-5.15-6.06-7.49-8.73c1.51,7.79,2.98,13.92-3.43,25.09c0-6.07-1.29-13.851-3.55-19.8c3.289,3.15,3.819,13.52,4.079,17.08c1.011-2.39,1.851-4.84,2.511-7.37c1.75-6.68,0.18-12.78-0.15-15.8c1.913,1.238,4.051,5.872,6.9,8.22c-1.801-4.38-2-6.61-5.399-15.54C168.6,77.325,171.119,79.245,173.749,80.275z M32.749,108.115c-3.38-8.12,0.65-14.03,1.47-21.93c-0.28,2.24-1.09,4.37-1.89,6.5c-4.66,2.63-6.61,4.12-9.57,5.06c9.449-7.89,11.529-13.99,11.747-22.946h-0.108c-0.153,1.387-0.459,3.801-1.019,5.966c-1.485-1.845-2.559-4.216-3.141-6.185l-1.204,0.011c0.695,2.252,2.058,4.925,4.075,7.094c-1.63,6.99-6.84,12.3-12.02,16.88c3.33-0.1,7.88-2.78,10.79-4.66c-2.09,5.7-2.23,10.66,1.77,17.57c-0.246-10.686,5.281-16.878,8.017-19.28c0.656-0.576,1.156-0.94,1.372-1.089C36.199,95.554,33.355,100.333,32.749,108.115z" fill="#000000" stroke-width="none" opacity="1"></path></g><g id="svga-group-humanbody-single"><path id="SvgjsPath2761" d="M190.858 199.866c-6.008-10.158-13.474-11.973-19.628-13.936 -6.323-2.016-19.346-3.178-26.449-4.6 -6.86-1.373-23.153-5.789-23.339-13.488 -0.192-8.066 4.291-40.09 4.291-40.09H74.005c0 0 4.487 32.023 4.294 40.09 -0.184 7.699-16.48 12.115-23.341 13.488 -7.104 1.422-20.125 2.584-26.448 4.6 -6.156 1.963-13.624 3.777-19.632 13.936 -3.644 6.16-6.008 16.133-6.008 27.133h194C196.869 215.999 194.509 206.026 190.858 199.866z" fill="#f0c7b1" stroke-width="none" opacity="1" stroke="none"></path><path id="SvgjsPath2762" d="M121.442 167.843c2.495 10.929 18.165 13.698 26.293 15.325 21.909 4.379 33.772 5.134 42.297 19.539 2.903 4.916 5.459 15.864 5.962 24.153 1.835 0.291 0.531-17.432-5.136-26.994 -9.742-16.472-29.089-15.135-46.077-18.535C137.921 179.958 121.628 175.542 121.442 167.843L121.442 167.843zM78.558 167.843c-0.186 7.699-16.479 12.115-23.339 13.488 -16.988 3.4-36.335 2.063-46.077 18.535 -5.667 9.563-6.971 27.285-5.136 26.994 0.503-8.289 3.059-19.237 5.962-24.153 8.524-14.405 20.388-15.16 42.297-19.539C60.393 181.541 76.063 178.771 78.558 167.843L78.558 167.843z" fill="#ffe4d6" stroke-width="none" opacity="1" stroke="none"></path><path id="SvgjsPath2763" d="M51.206 189.513c0 0 28.641 0.299 33.473 1.885 2.314 0.758 8.372 5.633 8.372 5.633s-6.556-3.17-8.658-3.758C79.51 191.909 51.206 189.513 51.206 189.513zM99.795 199.999c2.053-0.041 7.887-3.799 7.887-3.799s-5.574 2.059-7.342 2.16c-1.491 0.086-6.366-1.238-6.366-1.238S98.112 200.032 99.795 199.999zM117.008 192.757c6.75-1.818 29.786-3.23 29.786-3.23s-23.791-0.516-30.51 1.725c-2.252 0.752-7.562 5.16-7.562 5.16S114.786 193.354 117.008 192.757z" fill="#e1ac8f" stroke-width="none" opacity="1" stroke="none"></path><path id="SvgjsPath2764" d="M190.858 199.866c-9.741-16.471-29.122-15.142-46.077-18.535 -6.86-1.373-23.153-5.789-23.339-13.488 -0.192-8.066 4.291-40.09 4.291-40.09H74.005c0 0 4.487 32.023 4.294 40.09 -0.184 7.699-16.48 12.115-23.341 13.488 -7.104 1.422-20.125 2.584-26.448 4.6 -6.156 1.963-13.624 3.777-19.632 13.936 -3.644 6.16-6.008 16.133-6.008 27.133h194C196.869 215.999 194.509 206.026 190.858 199.866z" fill="none" stroke="#c27b55" stroke-width="1.5" opacity="1"></path></g><g id="svga-group-chinshadow-single"><path id="SvgjsPath4850" d="M90.469 169.769c4.474 1.646 14.594 1.646 19.067 0 3.511-1.291 7.479-4.019 11.489-7.484 0.785-10.522 3.279-28.936 3.919-33.578 -1.113-0.109-2.256-0.21-3.428-0.303H78.609c-1.305 0.103-2.578 0.216-3.811 0.339 0.643 4.663 3.096 22.765 3.899 33.297C82.804 165.622 86.875 168.447 90.469 169.769z" fill="url(#SvgjsLinearGradient4851)" opacity="1"></path></g><g id="svga-group-clothes-single" ><path id="SvgjsPath4838" d="M3.229 223.031c-0.622-0.007-0.456-0.006-0.92-0.006 0.025-17.784 6.689-31.059 17.837-35.518 1.466 0.314 3.037 0.725 4.514 1.033C11.551 194.886 4.531 208.814 3.229 223.031zM181.643 188.404c-1.855 0.251-3.683 0.491-5.504 0.729 13.353 5.75 17.424 20.534 19.434 33.854 0.344-0.001 0.655-0.002 0.931-0.002C195.421 206.217 195.152 195.351 181.643 188.404z" fill="#dd1616" stroke-width="none" opacity="1"></path><path id="SvgjsPath4839" d="M181.509 192.193c0.734-0.111 2.033-0.324 2.761-0.438 -1.678-1.271-2.67-1.958-3.67-2.549 -5.851 1.009-59.284 7.112-88.51 7.112 -38.337 0-66.622-6.76-71.951-8.293 -1.09 0.62-2.15 1.301-3.15 2.061 1 0.257 2.201 0.598 3.218 0.841 -10.338 7.09-15.825 19.518-16.978 32.104 30.39 0.341 61.447 0.514 92.321 0.514 0.005 0 0.01 0 0.015 0 40.676 0 71.674-0.298 88.328-0.458 5.388-0.052 9.327-0.09 11.679-0.1C193.85 211.572 190.635 199.159 181.509 192.193z" fill="#ce0000" stroke-width="none" opacity="1"></path><path id="SvgjsPath4840" d="M23.439 189.002c-1.117 0.595-2.181 1.252-3.204 1.955 49.803 12.038 110.22 9.005 161.174 1.236 -1.131-0.854-2.354-1.625-3.673-2.303C129.006 198.106 71.062 201.817 23.439 189.002z" fill="#bf0000" stroke-width="none" opacity="1"></path><path id="SvgjsPath4841" d="M181.629 188.306c-89.42 12.081-124.385 7.031-161.52-0.891 -13.279 5.312-17.9 21.352-17.9 35.71 0.17 0 0.33 0 0.49 0 105.661 1.193 182.323-0.04 193.91-0.04C195.509 206.252 195.316 195.321 181.629 188.306zM20.239 188.125c49.132 14.134 109.964 10.021 160.36 1.28 1 0.591 1.992 1.079 3.67 2.35 -52.607 8.26-115.869 11.615-167.18-1.569C18.089 189.426 19.149 188.745 20.239 188.125zM2.769 222.605c1.961-14.393 4.62-24.719 13.97-32.15 50.694 14.553 116.182 11.469 168.26 1.86 8.309 6.651 7.884 13.707 11.01 30.32C140.967 222.022 68.396 221.847 2.769 222.605z" fill="#a00000" stroke-width="none" opacity="1"></path></g><g id="svga-group-head" ><g id="svga-group-ears-left" transform="matrix(0.9499999 0 0 0.9499999 2.2241708416128176 4.84772469176788)"><path id="SvgjsPath4843" d="M47.001 83.974c-1.376-2.313-5.638-7.997-9.98-6.603 -2.749 0.882-3.293 3.765-3.735 6.311 -0.588 3.386 0.471 10.083 1.389 12.503 0.881 2.325 3.533 6.816 5.264 8.527 2.13 2.1 4.775 8.793 5.194 9.487 0.66 1.097 1.536 2.745 4.122 2.538 2.853-0.229 4.584-1.742 5.856-1.999C58.253 114.109 50.582 89.995 47.001 83.974z" fill="#f0c7b1" stroke="#c27b55" stroke-width="1.5" opacity="1"></path><path id="SvgjsPath4844" d="M44.197 97.997c-0.132-0.548 0.007-1.47 0.142-2.362 0.124-0.812 0.24-1.579 0.169-2.121 -0.267-2.032-1.773-5.893-2.757-7.985 -1.132-2.407-2.963-5.439-5.262-6.221 -0.95-0.324-1.575 0.063-1.938 0.456 -0.266 0.289-0.325 0.627-0.238 0.667 0.086 0.04 0.285-0.24 0.572-0.504 0.235-0.216 0.579-0.402 1.051-0.363 -0.19 1.011-1.167 6.49-0.744 10.225 0.333 2.938 1.593 5.131 1.79 5.46 0.029 0.346 0.077 0.685 0.148 1.014 0.929 4.287 4.971 9.163 6.378 10.758 0.259 0.295 0.531 0.47 0.598 0.398 0.066-0.072-0.094-0.364-0.353-0.66 -1.388-1.585-5.391-6.442-6.289-10.579 -0.952-4.389 2.318-10.896 3.048-12.272 0.371 0.646 0.687 1.267 0.93 1.785 0.19 0.406 0.402 0.881 0.619 1.395 -0.429 0.718-3.434 5.958-2.338 10.153 0.406 1.546 2.235 3.54 3.447 4.086 0.667 0.301 0.919 0.75 1.209 1.271 0.336 0.604 0.718 1.288 1.828 1.784 0.225 0.102 0.429 0.142 0.61 0.142 0.313 0 0.551-0.126 0.725-0.276 0.018 0.266 0.017 0.604 0.009 0.917 -0.012 0.404 0.042 0.737 0.137 0.745 0.094 0.008 0.196-0.313 0.207-0.717 0.016-0.496 0.013-1.11-0.072-1.403 -0.248-0.865-1.008-1.841-1.813-2.875C45.221 99.896 44.403 98.844 44.197 97.997zM36.95 94.196c-2.177-6.731 0.656-12.54 1.144-13.464 0.85 0.775 1.6 1.811 2.21 2.824C39.86 84.365 37.041 89.669 36.95 94.196zM46.341 104.042c-1.004-0.447-1.339-1.051-1.666-1.633 -0.293-0.527-0.598-1.072-1.369-1.42 -0.168-0.075-0.352-0.191-0.542-0.323 -2.486-5.906 0.272-8.488 0.963-9.017 0.211 0.722 0.369 1.384 0.439 1.915 0.063 0.488-0.052 1.263-0.167 2.012 -0.142 0.929-0.286 1.89-0.137 2.512 0.226 0.926 1.069 2.009 1.884 3.057 0.723 0.929 1.466 1.888 1.721 2.67C47.359 103.972 47.017 104.345 46.341 104.042z" fill="#c27b55" stroke-width="none" opacity="1"></path></g><g id="svga-group-ears-right" transform="matrix(0.9499999 0 0 0.9499999 7.762725333769225 4.84772469176788)"><path id="SvgjsPath4845" d="M152.736 83.974c1.377-2.313 5.639-7.997 9.98-6.603 2.75 0.882 3.293 3.765 3.736 6.311 0.588 3.386-0.471 10.083-1.389 12.503 -0.881 2.325-3.533 6.816-5.266 8.527 -2.129 2.1-4.775 8.793-5.193 9.487 -0.658 1.097-1.535 2.745-4.121 2.538 -2.854-0.229-4.584-1.742-5.857-1.999C141.484 114.109 149.156 89.995 152.736 83.974z" fill="#f0c7b1" stroke="#c27b55" stroke-width="1.5" opacity="1"></path><path id="SvgjsPath4846" d="M153.727 100.913c-0.805 1.033-1.564 2.009-1.813 2.875 -0.086 0.293-0.088 0.907-0.072 1.403 0.012 0.404 0.113 0.725 0.207 0.717s0.148-0.341 0.137-0.745c-0.008-0.313-0.008-0.651 0.01-0.917 0.174 0.15 0.412 0.276 0.725 0.276 0.182 0 0.385-0.04 0.609-0.142 1.109-0.496 1.492-1.18 1.828-1.784 0.289-0.52 0.543-0.969 1.209-1.271 1.213-0.546 3.041-2.54 3.447-4.086 1.096-4.194-1.908-9.435-2.338-10.153 0.217-0.513 0.43-0.988 0.619-1.395 0.244-0.518 0.559-1.139 0.93-1.785 0.73 1.377 4 7.883 3.049 12.272 -0.896 4.137-4.9 8.994-6.289 10.579 -0.258 0.296-0.418 0.588-0.352 0.66 0.066 0.071 0.338-0.104 0.598-0.398 1.406-1.596 5.449-6.471 6.379-10.758 0.07-0.329 0.117-0.668 0.146-1.014 0.197-0.329 1.459-2.523 1.791-5.46 0.422-3.735-0.555-9.214-0.744-10.225 0.473-0.039 0.814 0.146 1.051 0.363 0.287 0.264 0.486 0.544 0.572 0.504s0.027-0.378-0.238-0.667c-0.363-0.393-0.988-0.779-1.938-0.456 -2.299 0.782-4.131 3.814-5.262 6.221 -0.984 2.093-2.49 5.953-2.758 7.985 -0.072 0.542 0.045 1.309 0.17 2.121 0.135 0.892 0.273 1.814 0.141 2.362C155.336 98.844 154.518 99.896 153.727 100.913zM159.434 83.555c0.611-1.013 1.361-2.049 2.211-2.824 0.488 0.925 3.32 6.733 1.145 13.464C162.697 89.669 159.879 84.365 159.434 83.555zM152.27 103.816c0.254-0.782 0.998-1.741 1.721-2.67 0.816-1.048 1.658-2.131 1.885-3.057 0.148-0.622 0.004-1.583-0.137-2.512 -0.115-0.749-0.23-1.524-0.166-2.012 0.068-0.531 0.227-1.193 0.438-1.915 0.691 0.529 3.449 3.111 0.965 9.017 -0.191 0.132-0.375 0.248-0.543 0.323 -0.771 0.348-1.074 0.893-1.369 1.42 -0.326 0.582-0.662 1.186-1.666 1.633C152.721 104.345 152.379 103.972 152.27 103.816z" fill="#c27b55" stroke-width="none" opacity="1"></path></g><g id="svga-group-faceshape-wrap" ><g id="svga-group-faceshape-single" ><path id="SvgjsPath4847" d="M144.004 125.052c-6.87 10.737-23.072 30.026-34.468 34.218 -4.474 1.646-14.594 1.646-19.067 0 -11.396-4.192-27.596-23.481-34.467-34.218 -6.753-10.551-14.852-47.803-14.863-47.856 -1.3-4.912-1.996-10.066-2.004-15.382C39.082 28.339 66.289 1.168 99.907 1.116c33.621-0.052 60.913 27.032 60.963 60.506 0.009 5.316-0.669 10.473-1.952 15.389C158.901 77.063 150.78 114.46 144.004 125.052z" fill="#f0c7b1" stroke-width="none" opacity="1"></path><path id="SvgjsPath4848" d="M110.152 1.969c26.994 6.24 47.097 30.337 47.052 59.111 -0.009 5.315-0.704 10.471-2.004 15.382 -0.012 0.053-7.377 37.307-14.13 47.856 -6.872 10.735-22.339 29.292-33.734 33.484 -1.476 0.544-5.027 1.092-7.334 1.092 -2.307 0-5.857-0.548-7.333-1.092 -11.396-4.192-26.863-22.749-33.734-33.484 -6.753-10.55-14.119-47.803-14.13-47.856 -1.3-4.911-1.996-10.066-2.004-15.382C42.756 32.307 62.857 8.209 89.853 1.969 61.03 6.788 39.087 31.751 39.134 61.813c0.008 5.315 0.704 10.47 2.004 15.382 0.012 0.053 8.11 37.306 14.863 47.856 6.871 10.736 23.072 30.025 34.467 34.218 2.239 0.824 5.889 1.235 9.537 1.232 3.646 0.001 7.292-0.408 9.53-1.232 11.396-4.192 27.596-23.481 34.468-34.218 6.753-10.551 14.852-47.803 14.862-47.856 1.3-4.912 1.996-10.066 2.004-15.382C160.918 31.751 138.975 6.788 110.152 1.969z" fill="#e8b9a0" stroke-width="none" opacity="1"></path><path id="SvgjsPath4849" d="M144.004 125.052c-6.87 10.737-23.072 30.026-34.468 34.218 -4.474 1.646-14.594 1.646-19.067 0 -11.396-4.192-27.596-23.481-34.467-34.218 -6.753-10.551-14.852-47.803-14.863-47.856 -1.3-4.912-1.996-10.066-2.004-15.382C39.082 28.339 66.289 1.168 99.907 1.116c33.621-0.052 60.913 27.032 60.963 60.506 0.009 5.316-0.669 10.473-1.952 15.389C158.901 77.063 150.78 114.46 144.004 125.052z" fill="none" stroke="#c27b55" stroke-width="1.5" opacity="1"></path></g></g><g id="svga-group-mouth-single" transform="matrix(1.1000003100000002 0 0 1.1000003100000002 -10.000334650843683 -13.399996526432744) translate(0 1)"><path id="SvgjsPath4813" d="M100.091 139.322c-4.952 0-6.142-3.033-6.142-3.033 6.246 2.316 11.836-0.124 11.836-0.124S104.446 139.322 100.091 139.322z" fill="url(#SvgjsLinearGradient4814)" opacity="1"></path><path id="SvgjsPath4817" d="M85.595 129.671c2.677-0.132 7.545-1.077 10.096-0.988 1.319 0.046 2.63 0.953 4.007 1.242 0.958 0.202 3.935-1.1 4.915-1.162 2.572-0.162 7.409 0.744 9.771 0.92 0.13 0.011 0 0 0 0s-5.776 7.727-14.463 7.725C90.09 137.406 85.595 129.671 85.595 129.671S85.463 129.678 85.595 129.671z" fill="#e50202" stroke="#d60000" stroke-width="0.75" opacity="1"></path><path id="SvgjsPath4818" d="M114.739 129.405c-0.045-0.131-0.461-0.189-0.624-0.139 -0.3 0.094-0.663 0.521-1.313 0.686 -0.748 0.191-5.021 1.431-6.193 1.49 -2.365 0.118-4.438 0.943-6.76 0.938 -2.323-0.005-4.34-0.929-6.716-1.058 -1.18-0.065-5.194-1.216-5.947-1.4 -0.65-0.16-0.89-0.574-1.162-0.686 -0.189-0.077-0.652-0.02-0.743 0.105 -0.079 0.107 0.088 0.609 0.2 0.75 0.271 0.336 1.103 0.506 1.667 0.647 0.779 0.199 4.759 1.366 5.949 1.433 2.305 0.13 4.308 1.125 6.612 1.127 2.306 0.003 4.405-0.904 6.729-1.022 1.195-0.062 5.53-1.313 6.332-1.513 0.58-0.146 1.388-0.399 1.672-0.68C114.58 129.95 114.785 129.538 114.739 129.405z" fill="#b70000" stroke-width="none" opacity="1" stroke="none"></path><path id="SvgjsPath4819" d="M99.799 136.138c-3.914 0-7.707-1.246-10.289-3.693 1.36 0.19 2.83 0.207 4.269 0.403 1.773 0.242 3.429 0.921 5.248 1.034 1.968 0.125 3.916-0.495 5.886-0.841 1.644-0.289 4.21-1.067 5.742-1.302C107.729 133.982 103.577 136.138 99.799 136.138zM105.256 131.043c1.49-0.149 3.855-0.879 5.226-1.04 -1.406-0.413-3.829-0.279-5.576-0.441 -1.506-0.139-3.244 0.861-4.817 1.016 -1.774 0.175-2.94-1.233-4.607-1.369 -1.809-0.147-3.787 0.559-5.336 0.915 1.387 0.188 2.877 0.239 4.309 0.517 1.753 0.341 3.405 0.992 5.223 1.054C101.537 131.757 103.419 131.226 105.256 131.043z" fill="#f41b1b" stroke-width="none" opacity="1" stroke="none"></path><path id="SvgjsPath4820" d="M105.695 133.406c-0.308 0.01-0.625 0.025-0.93 0.051 -0.351 0.028-0.668 0.069-0.961 0.123 -0.538 0.099-1.074 0.233-1.638 0.369 -0.888 0.216-1.726 0.392-2.662 0.391 -0.15 0-0.301-0.007-0.452-0.017 -0.764-0.055-1.521-0.217-2.191-0.412 -0.693-0.204-1.353-0.401-2.019-0.492 -0.128-0.017-0.259-0.029-0.387-0.042 -0.409-0.036-0.836-0.052-1.255-0.063 1.734 1.396 4.128 2.038 6.468 2.041C102.079 135.356 103.946 134.512 105.695 133.406z" fill="#ff3535" stroke-width="none" opacity="1" stroke="none"></path></g><g id="svga-group-eyes-left" ><g id="svga-group-eyesback-left"><path id="SvgjsPath4544" d="M60.986 83.262c0.405-0.904 2.145-2.183 5.923-3.078 1.724-0.409 4.107-0.321 6.578-0.143 5.98 0.429 11.736 4.248 13.547 7.316 0.004 0 0.008 0 0.012 0 0.351 0.611 0.565 1.192 0.585 1.702 0.041 1.082-0.444 1.94-1.316 2.623 0.001-0.001 0.002-0.002 0.003-0.004 -2.256 1.847-8.541 2.244-12.319 2.213 -7.52-0.063-9.723-2.969-9.723-2.969 -0.938-1.243-2.008-2.639-2.695-4.086 0.018 0.023 0.028 0.036 0.028 0.036 -0.715-1.591-0.636-2.143-0.719-3.156C60.904 83.566 60.938 83.414 60.986 83.262z" fill="url(#SvgjsRadialGradient4545)" opacity="1"></path></g><g id="svga-group-eyesiriswrapper-left" transform="translate(-0.75 0.25)"><g id="svga-group-eyesiriscontrol-left" ><g id="svga-group-eyesiris-left" ><path id="SvgjsPath4602" d="M83.5 87c0 4.694-3.806 8.5-8.499 8.5 -4.694 0-8.501-3.806-8.501-8.5l0 0c0-4.694 3.807-8.5 8.501-8.5C79.694 78.499 83.5 82.305 83.5 87L83.5 87z" fill="#a1753a" stroke-width="none" opacity="1" stroke="none"></path><path id="SvgjsPath4603" d="M74.048 78.595c-0.033 0.004-0.066 0.008-0.101 0.012 0.041 0.191 0.081 0.384 0.12 0.575C74.06 78.987 74.055 78.789 74.048 78.595zM74.066 79.18c0.099 2.793 0.262 5.282 0.732 6.183C75.047 84.377 74.625 81.92 74.066 79.18zM74.8 85.365c-0.061 0.236-0.153 0.397-0.294 0.452 -0.142 0.053-0.319-0.008-0.521-0.146 0.058 0.236 0.052 0.422-0.051 0.537 -0.102 0.114-0.285 0.142-0.527 0.11 0.16 0.184 0.242 0.353 0.206 0.5 -0.039 0.148-0.189 0.258-0.415 0.343 0.225 0.088 0.376 0.199 0.411 0.347 0.036 0.148-0.046 0.315-0.205 0.498 0.241-0.029 0.426 0.001 0.525 0.115 0.101 0.114 0.106 0.301 0.05 0.537 0.199-0.137 0.376-0.197 0.518-0.142 0.143 0.053 0.234 0.216 0.291 0.454 0.114-0.215 0.243-0.353 0.396-0.368 0.148-0.02 0.307 0.084 0.466 0.267 0.002-0.244 0.053-0.423 0.181-0.51 0.124-0.086 0.311-0.069 0.537 0.018 -0.11-0.216-0.148-0.398-0.078-0.534 0.071-0.135 0.245-0.207 0.487-0.235 -0.199-0.14-0.321-0.283-0.318-0.436 -0.001-0.153 0.119-0.296 0.321-0.434 -0.241-0.03-0.412-0.103-0.484-0.237 -0.07-0.135-0.031-0.319 0.081-0.535 -0.229 0.085-0.413 0.102-0.538 0.016 -0.126-0.086-0.177-0.267-0.178-0.51 -0.158 0.182-0.316 0.282-0.468 0.262C75.041 85.714 74.911 85.58 74.8 85.365zM75.66 85.471c0.679-0.758 1.446-3.13 2.224-5.813C76.674 82.174 75.662 84.453 75.66 85.471zM77.883 79.657c0.085-0.172 0.172-0.348 0.253-0.524 -0.03-0.011-0.06-0.024-0.09-0.037C77.992 79.284 77.938 79.472 77.883 79.657zM76.377 85.965c0.953-0.357 2.736-2.101 4.671-4.115C78.808 83.517 76.851 85.065 76.377 85.965zM81.048 81.851c0.142-0.106 0.287-0.213 0.433-0.318 -0.021-0.025-0.043-0.047-0.06-0.07C81.297 81.59 81.174 81.722 81.048 81.851zM76.777 86.738c1.01 0.125 3.399-0.591 6.052-1.475C80.068 85.698 77.617 86.159 76.777 86.738zM82.829 85.263c0.156-0.022 0.318-0.048 0.478-0.073 -0.007-0.026-0.013-0.054-0.02-0.081C83.135 85.16 82.979 85.212 82.829 85.263zM76.775 87.606c0.836 0.583 3.284 1.057 6.038 1.505C80.171 88.214 77.786 87.484 76.775 87.606zM82.813 89.111c0.135 0.047 0.271 0.095 0.404 0.138 0.007-0.024 0.013-0.047 0.018-0.071C83.098 89.158 82.954 89.135 82.813 89.111zM76.367 88.375c0.471 0.902 2.42 2.462 4.649 4.142C79.092 90.492 77.32 88.737 76.367 88.375zM81.018 92.514c0.083 0.087 0.17 0.179 0.253 0.268 0.014-0.017 0.027-0.031 0.043-0.046C81.215 92.662 81.113 92.587 81.018 92.514zM75.652 88.867c-0.004 1.019 0.995 3.302 2.191 5.827C77.079 92.006 76.327 89.628 75.652 88.867zM77.844 94.694c0.03 0.106 0.062 0.215 0.09 0.324 0.021-0.008 0.036-0.015 0.055-0.02C77.941 94.896 77.892 94.793 77.844 94.694zM74.788 88.968c-0.476 0.902-0.653 3.386-0.768 6.178C74.594 92.413 75.031 89.958 74.788 88.968zM74.021 95.146c-0.023 0.106-0.044 0.214-0.066 0.323 0.02 0.004 0.035 0.005 0.055 0.007C74.013 95.368 74.018 95.254 74.021 95.146zM73.979 88.657c-0.844 0.576-2.154 2.697-3.553 5.114C72.204 91.617 73.733 89.645 73.979 88.657zM70.427 93.771c-0.074 0.09-0.152 0.185-0.229 0.274 0.018 0.012 0.034 0.02 0.053 0.034C70.309 93.976 70.369 93.873 70.427 93.771zM73.405 88.006c-1.015 0.119-3.16 1.385-5.522 2.875C70.46 89.801 72.726 88.768 73.405 88.006zM67.883 90.884c-0.122 0.051-0.247 0.102-0.372 0.156 0.009 0.019 0.021 0.038 0.033 0.057C67.658 91.027 67.771 90.954 67.883 90.884zM73.198 87.161c-0.951-0.365-3.441-0.238-6.227-0.016C69.755 87.383 72.244 87.521 73.198 87.161zM66.972 87.145c-0.151-0.014-0.308-0.028-0.457-0.041 -0.001 0.027-0.003 0.053-0.001 0.08C66.669 87.169 66.822 87.156 66.972 87.145zM73.407 86.318c-0.67-0.763-2.932-1.809-5.499-2.905C70.259 84.915 72.397 86.196 73.407 86.318zM67.908 83.413c-0.147-0.095-0.297-0.189-0.446-0.285 -0.013 0.026-0.026 0.053-0.041 0.078C67.585 83.276 67.75 83.344 67.908 83.413zM73.985 85.67c-0.239-0.989-1.758-2.967-3.521-5.132C71.849 82.963 73.147 85.09 73.985 85.67zM70.465 80.538c-0.095-0.163-0.188-0.329-0.281-0.494 -0.026 0.018-0.055 0.037-0.079 0.054C70.224 80.245 70.348 80.393 70.465 80.538z" fill="url(#SvgjsRadialGradient4604)" opacity="1"></path><path id="SvgjsPath4607" d="M76.255 78.622c-0.034-0.004-0.066-0.01-0.1-0.014 -0.011 0.196-0.022 0.393-0.034 0.586C76.164 79.004 76.211 78.812 76.255 78.622zM76.12 79.193c-0.627 2.724-1.114 5.17-0.892 6.162C75.724 84.467 75.95 81.984 76.12 79.193zM75.229 85.356c-0.119 0.212-0.25 0.344-0.401 0.36 -0.15 0.014-0.306-0.091-0.464-0.276 -0.006 0.243-0.06 0.421-0.188 0.505 -0.128 0.083-0.313 0.063-0.539-0.03 0.107 0.219 0.143 0.403 0.069 0.536 -0.075 0.133-0.249 0.201-0.489 0.224 0.194 0.144 0.312 0.289 0.308 0.441 -0.003 0.152-0.126 0.292-0.327 0.428 0.24 0.034 0.41 0.111 0.478 0.247 0.067 0.136 0.025 0.318-0.091 0.532 0.229-0.081 0.414-0.093 0.537-0.003 0.123 0.088 0.17 0.27 0.164 0.514 0.166-0.177 0.325-0.278 0.478-0.253 0.148 0.02 0.274 0.16 0.382 0.379 0.064-0.236 0.16-0.396 0.306-0.447 0.143-0.051 0.318 0.014 0.515 0.157 -0.051-0.237-0.041-0.423 0.063-0.536s0.29-0.136 0.532-0.102c-0.157-0.187-0.238-0.356-0.195-0.504 0.039-0.148 0.192-0.255 0.423-0.336 -0.226-0.091-0.372-0.206-0.407-0.354 -0.032-0.149 0.053-0.316 0.218-0.495 -0.243 0.023-0.427-0.009-0.524-0.125 -0.099-0.115-0.102-0.303-0.039-0.538 -0.201 0.134-0.38 0.19-0.521 0.132C75.37 85.756 75.281 85.593 75.229 85.356zM76.033 85.683c0.852-0.558 2.206-2.65 3.652-5.04C77.865 82.76 76.298 84.699 76.033 85.683zM79.685 80.641c0.126-0.145 0.255-0.292 0.38-0.44 -0.027-0.019-0.052-0.04-0.078-0.06C79.886 80.31 79.785 80.477 79.685 80.641zM76.597 86.345c1.013-0.099 3.187-1.322 5.577-2.767C79.578 84.609 77.287 85.598 76.597 86.345zM82.173 83.579c0.165-0.065 0.333-0.131 0.501-0.195 -0.014-0.029-0.029-0.056-0.04-0.083C82.481 83.392 82.328 83.487 82.173 83.579zM76.783 87.194c0.943 0.382 3.437 0.309 6.227 0.142C80.231 87.042 77.745 86.853 76.783 87.194zM83.01 87.336c0.158 0.019 0.32 0.036 0.48 0.053 0.001-0.027 0.002-0.055 0.003-0.083C83.332 87.316 83.168 87.326 83.01 87.336zM76.558 88.033c0.655 0.78 2.898 1.871 5.442 3.017C79.679 89.499 77.565 88.177 76.558 88.033zM82 91.049c0.117 0.08 0.236 0.161 0.354 0.238 0.013-0.021 0.024-0.042 0.035-0.063C82.262 91.168 82.129 91.109 82 91.049zM75.964 88.67c0.221 0.993 1.699 3.004 3.419 5.205C78.048 91.419 76.791 89.266 75.964 88.67zM79.384 93.872c0.059 0.106 0.117 0.217 0.176 0.325 0.018-0.013 0.034-0.023 0.053-0.034C79.536 94.065 79.458 93.967 79.384 93.872zM75.146 88.96c-0.267 0.982 0.107 3.447 0.608 6.195C75.711 92.361 75.601 89.87 75.146 88.96zM75.754 95.155c0.002 0.11 0.004 0.224 0.004 0.337 0.021-0.003 0.038-0.005 0.058-0.005C75.796 95.376 75.775 95.264 75.754 95.155zM74.285 88.834c-0.693 0.748-1.508 3.102-2.341 5.769C73.205 92.11 74.265 89.853 74.285 88.834zM71.944 94.603c-0.05 0.096-0.099 0.195-0.147 0.295 0.017 0.008 0.032 0.013 0.051 0.021C71.879 94.815 71.913 94.707 71.944 94.603zM73.584 88.324c-0.964 0.338-2.779 2.048-4.756 4.021C71.104 90.724 73.091 89.215 73.584 88.324zM68.828 92.345c-0.095 0.067-0.194 0.138-0.29 0.206 0.014 0.016 0.027 0.028 0.041 0.045C68.661 92.511 68.746 92.428 68.828 92.345zM73.197 87.546c-1.01-0.148-3.409 0.521-6.078 1.349C69.889 88.518 72.345 88.106 73.197 87.546zM67.119 88.897c-0.131 0.018-0.265 0.034-0.4 0.054 0.005 0.021 0.011 0.042 0.018 0.063C66.865 88.977 66.993 88.936 67.119 88.897zM73.217 86.677c-0.824-0.599-3.263-1.121-6.01-1.627C69.833 86 72.202 86.777 73.217 86.677zM67.207 85.05c-0.143-0.052-0.29-0.106-0.432-0.158 -0.008 0.026-0.016 0.051-0.021 0.077C66.907 84.995 67.06 85.022 67.207 85.05zM73.637 85.917c-0.45-0.911-2.363-2.506-4.561-4.23C70.959 83.747 72.693 85.538 73.637 85.917zM69.076 81.688c-0.118-0.13-0.236-0.26-0.355-0.391 -0.021 0.022-0.041 0.044-0.061 0.065C68.8 81.471 68.941 81.58 69.076 81.688zM74.363 85.44c0.024-1.017-0.93-3.321-2.073-5.868C72.999 82.273 73.704 84.663 74.363 85.44zM72.29 79.572c-0.049-0.182-0.096-0.366-0.144-0.55 -0.029 0.01-0.062 0.021-0.09 0.032C72.134 79.227 72.214 79.401 72.29 79.572z" fill="url(#SvgjsRadialGradient4608)" opacity="1"></path><path id="SvgjsPath4611" d="M78.334 87c0 1.842-1.492 3.333-3.333 3.333S71.666 88.841 71.666 87c0-1.841 1.494-3.334 3.335-3.334C76.844 83.666 78.334 85.159 78.334 87z" fill="#a1753a" stroke-width="none" opacity="1" stroke="none"></path><path id="SvgjsPath4612" d="M78.334 87c0 1.842-1.492 3.333-3.333 3.333S71.666 88.841 71.666 87c0-1.841 1.494-3.334 3.335-3.334C76.844 83.666 78.334 85.159 78.334 87z" fill="#000000" stroke-width="none" opacity="0.9"></path><path id="SvgjsPath4613" d="M70.35 90.893c0.636-0.427 1.5-0.255 1.927 0.38 0.427 0.637 0.258 1.5-0.379 1.927 -0.638 0.429-1.5 0.258-1.927-0.378C69.544 92.185 69.713 91.32 70.35 90.893L70.35 90.893z" fill="url(#SvgjsLinearGradient4614)" opacity="0.5"></path><path id="SvgjsPath4617" d="M77.635 86.536c-0.356 0.53-1.373 0.468-2.275-0.136 -0.903-0.605-1.346-1.526-0.991-2.055l0.001-0.001c0.354-0.53 1.372-0.469 2.274 0.137 0.903 0.604 1.346 1.524 0.992 2.054C77.635 86.536 77.635 86.536 77.635 86.536z" fill="url(#SvgjsLinearGradient4618)" opacity="0.5"></path><path id="SvgjsPath4621" d="M81.682 85.121c-0.806 1.237-2.884 1.31-4.641 0.166 -1.756-1.145-2.527-3.075-1.722-4.311 0.806-1.235 2.884-1.31 4.641-0.166C81.715 81.956 82.485 83.887 81.682 85.121L81.682 85.121z" fill="url(#SvgjsLinearGradient4622)" opacity="0.75"></path></g></g></g><g id="svga-group-eyesfront-left"><path id="SvgjsPath4569" d="M56 88c0 13.808 8.06 24.999 18 24.999S92 101.808 92 88c0-13.809-8.06-25.001-18-25.001S56 74.191 56 88zM61.58 86.836c0.018 0.023 0.028 0.036 0.028 0.036 -0.715-1.591-0.636-2.143-0.719-3.156 0.015-0.149 0.048-0.301 0.097-0.454 0.405-0.904 2.145-2.183 5.923-3.078 1.724-0.409 4.107-0.321 6.578-0.143 5.98 0.429 11.736 4.248 13.547 7.316 0.004 0 0.008 0 0.012 0 0.351 0.611 0.565 1.192 0.585 1.702 0.041 1.082-0.444 1.94-1.316 2.623 0.001-0.001 0.002-0.002 0.003-0.004 -2.256 1.847-8.541 2.244-12.319 2.213 -7.52-0.063-9.723-2.969-9.723-2.969C63.337 89.679 62.268 88.283 61.58 86.836z" fill="#f0c7b1" stroke-width="none" opacity="1" stroke="none"></path><path id="SvgjsPath4570" d="M57.143 85.081c0.027 8.284 8.484 14.962 18.902 14.919 10.414-0.047 18.836-6.796 18.813-15.08C94.83 76.635 86.371 69.957 75.955 70 65.539 70.047 57.119 76.796 57.143 85.081zM61.608 86.872c-0.715-1.591-0.636-2.143-0.719-3.156 0.015-0.149 0.048-0.301 0.097-0.454 0.405-0.904 2.145-2.183 5.923-3.078 1.724-0.409 4.107-0.321 6.578-0.143 5.98 0.429 11.736 4.248 13.547 7.316 0.004 0 0.008 0 0.012 0 0.351 0.611 0.565 1.192 0.585 1.702 0.041 1.082-0.444 1.94-1.316 2.623 0.001-0.001 0.002-0.002 0.003-0.004 -2.256 1.847-8.541 2.244-12.319 2.213 -7.52-0.063-9.723-2.969-9.723-2.969 -0.938-1.243-2.008-2.639-2.695-4.086C61.598 86.859 61.608 86.872 61.608 86.872z" fill="url(#SvgjsRadialGradient4571)" opacity="1"></path><path id="SvgjsPath4575" d="M64.275 90.922c-0.938-1.243-2.008-2.639-2.695-4.086 0.018 0.023 0.028 0.036 0.028 0.036 -0.715-1.591-0.636-2.143-0.719-3.156 0.015-0.149 0.048-0.301 0.097-0.454 0.405-0.904 2.145-2.183 5.923-3.078 1.724-0.409 4.107-0.321 6.578-0.143 5.98 0.429 11.736 4.248 13.547 7.316 0.004 0 0.008 0 0.012 0 0.351 0.611 0.565 1.192 0.585 1.702 0.041 1.082-0.444 1.94-1.316 2.623 0.001-0.001 0.002-0.002 0.003-0.004 -2.256 1.847-8.541 2.244-12.319 2.213C66.479 93.828 64.275 90.922 64.275 90.922z" fill="url(#SvgjsRadialGradient4576)" opacity="1"></path><path id="SvgjsPath4579" d="M88.256 84.111c-6.821-5.453-10.878-7.558-19.341-7.756 5.832-0.553 11.102 1.27 14.204 3.22C84.57 80.487 87.256 83.237 88.256 84.111z" fill="#c27b55" stroke-width="none" opacity="1" stroke="none"></path><path id="SvgjsPath4580" d="M73.998 93.782c3.778 0.031 10.063-0.36 12.319-2.179 -3.322 2.549-8.594 2.881-11.579 2.931 -1.947 0.032-5.992-0.08-7.732-0.953 -0.844-0.423-2.398-1.754-2.73-2.721C64.275 90.86 66.479 93.721 73.998 93.782zM60.151 79.638c-2.637 0.1-4.002-0.024-4.002-0.024 1.445 1.008 1.701 1.207 2.362 2.363 1.348 2.355 3.097 4.895 3.097 4.895 -0.715-1.567-0.636-2.11-0.719-3.107 -0.071-0.864 1.554-2.436 6.02-3.477 1.724-0.402 4.107-0.315 6.578-0.141 5.98 0.423 11.736 4.183 13.547 7.204 0.27-0.012 0.587-0.017 0.693-0.13 0.106-0.114 0.056-0.489-0.021-0.626 -2.488-4.434-11.123-9.373-18.236-9C64.524 77.854 61.992 79.568 60.151 79.638z" fill="#000000" stroke-width="none" opacity="1" stroke="none"></path></g></g><g id="svga-group-eyes-right" ><g id="svga-group-eyesback-right"><path id="SvgjsPath4552" d="M139.014 83.262c-0.405-0.904-2.145-2.183-5.923-3.078 -1.724-0.409-4.107-0.321-6.578-0.143 -5.98 0.429-11.736 4.248-13.547 7.316 -0.004 0-0.008 0-0.012 0 -0.351 0.611-0.565 1.192-0.585 1.702 -0.041 1.082 0.444 1.94 1.316 2.623 -0.001-0.001-0.002-0.002-0.003-0.004 2.256 1.847 8.541 2.244 12.319 2.213 7.52-0.063 9.723-2.969 9.723-2.969 0.938-1.243 2.008-2.639 2.695-4.086 -0.018 0.023-0.028 0.036-0.028 0.036 0.715-1.591 0.636-2.143 0.719-3.156C139.096 83.566 139.063 83.414 139.014 83.262z" fill="url(#SvgjsRadialGradient4553)" opacity="1"></path></g><g id="svga-group-eyesiriswrapper-right" transform="translate(0.75 0.25)"><g id="svga-group-eyesiriscontrol-right" ><g id="svga-group-eyesiris-right" ><path id="SvgjsPath4625" d="M133.5 87c0 4.694-3.806 8.5-8.499 8.5 -4.694 0-8.501-3.806-8.501-8.5l0 0c0-4.694 3.807-8.5 8.501-8.5C129.694 78.499 133.5 82.305 133.5 87L133.5 87z" fill="#a1753a" stroke-width="none" opacity="1" stroke="none"></path><path id="SvgjsPath4626" d="M124.048 78.595c-0.033 0.004-0.066 0.008-0.101 0.012 0.041 0.191 0.081 0.384 0.12 0.575C124.06 78.987 124.055 78.789 124.048 78.595zM124.066 79.18c0.099 2.793 0.262 5.282 0.732 6.183C125.047 84.377 124.625 81.92 124.066 79.18zM124.8 85.365c-0.061 0.236-0.153 0.397-0.294 0.452 -0.142 0.053-0.319-0.008-0.521-0.146 0.058 0.236 0.052 0.422-0.051 0.537 -0.102 0.114-0.285 0.142-0.527 0.11 0.16 0.184 0.242 0.353 0.206 0.5 -0.039 0.148-0.189 0.258-0.415 0.343 0.225 0.088 0.376 0.199 0.411 0.347 0.036 0.148-0.046 0.315-0.205 0.498 0.241-0.029 0.426 0.001 0.525 0.115 0.101 0.114 0.106 0.301 0.05 0.537 0.199-0.137 0.376-0.197 0.518-0.142 0.143 0.053 0.234 0.216 0.291 0.454 0.114-0.215 0.243-0.353 0.396-0.368 0.148-0.02 0.307 0.084 0.466 0.267 0.002-0.244 0.053-0.423 0.181-0.51 0.124-0.086 0.311-0.069 0.537 0.018 -0.11-0.216-0.148-0.398-0.078-0.534 0.071-0.135 0.245-0.207 0.487-0.235 -0.199-0.14-0.321-0.283-0.318-0.436 -0.001-0.153 0.119-0.296 0.321-0.434 -0.241-0.03-0.412-0.103-0.484-0.237 -0.07-0.135-0.031-0.319 0.081-0.535 -0.229 0.085-0.413 0.102-0.538 0.016 -0.126-0.086-0.177-0.267-0.178-0.51 -0.158 0.182-0.316 0.282-0.468 0.262C125.041 85.714 124.911 85.58 124.8 85.365zM125.66 85.471c0.679-0.758 1.446-3.13 2.224-5.813C126.674 82.174 125.662 84.453 125.66 85.471zM127.883 79.657c0.085-0.172 0.172-0.348 0.253-0.524 -0.03-0.011-0.06-0.024-0.09-0.037C127.992 79.284 127.938 79.472 127.883 79.657zM126.377 85.965c0.953-0.357 2.736-2.101 4.671-4.115C128.808 83.517 126.851 85.065 126.377 85.965zM131.048 81.851c0.142-0.106 0.287-0.213 0.433-0.318 -0.021-0.025-0.043-0.047-0.06-0.07C131.297 81.59 131.174 81.722 131.048 81.851zM126.777 86.738c1.01 0.125 3.399-0.591 6.052-1.475C130.068 85.698 127.617 86.159 126.777 86.738zM132.829 85.263c0.156-0.022 0.318-0.048 0.478-0.073 -0.007-0.026-0.013-0.054-0.02-0.081C133.135 85.16 132.979 85.212 132.829 85.263zM126.775 87.606c0.836 0.583 3.284 1.057 6.038 1.505C130.171 88.214 127.786 87.484 126.775 87.606zM132.813 89.111c0.135 0.047 0.271 0.095 0.404 0.138 0.007-0.024 0.013-0.047 0.018-0.071C133.098 89.158 132.954 89.135 132.813 89.111zM126.367 88.375c0.471 0.902 2.42 2.462 4.649 4.142C129.092 90.492 127.32 88.737 126.367 88.375zM131.018 92.514c0.083 0.087 0.17 0.179 0.253 0.268 0.014-0.017 0.027-0.031 0.043-0.046C131.215 92.662 131.113 92.587 131.018 92.514zM125.652 88.867c-0.004 1.019 0.995 3.302 2.191 5.827C127.079 92.006 126.327 89.628 125.652 88.867zM127.844 94.694c0.03 0.106 0.062 0.215 0.09 0.324 0.021-0.008 0.036-0.015 0.055-0.02C127.941 94.896 127.892 94.793 127.844 94.694zM124.788 88.968c-0.476 0.902-0.653 3.386-0.768 6.178C124.594 92.413 125.031 89.958 124.788 88.968zM124.021 95.146c-0.023 0.106-0.044 0.214-0.066 0.323 0.02 0.004 0.035 0.005 0.055 0.007C124.013 95.368 124.018 95.254 124.021 95.146zM123.979 88.657c-0.844 0.576-2.154 2.697-3.553 5.114C122.204 91.617 123.733 89.645 123.979 88.657zM120.427 93.771c-0.074 0.09-0.152 0.185-0.229 0.274 0.018 0.012 0.034 0.02 0.053 0.034C120.309 93.976 120.369 93.873 120.427 93.771zM123.405 88.006c-1.015 0.119-3.16 1.385-5.522 2.875C120.46 89.801 122.726 88.768 123.405 88.006zM117.883 90.884c-0.122 0.051-0.247 0.102-0.372 0.156 0.009 0.019 0.021 0.038 0.033 0.057C117.658 91.027 117.771 90.954 117.883 90.884zM123.198 87.161c-0.951-0.365-3.441-0.238-6.227-0.016C119.755 87.383 122.244 87.521 123.198 87.161zM116.972 87.145c-0.151-0.014-0.308-0.028-0.457-0.041 -0.001 0.027-0.003 0.053-0.001 0.08C116.669 87.169 116.822 87.156 116.972 87.145zM123.407 86.318c-0.67-0.763-2.932-1.809-5.499-2.905C120.259 84.915 122.397 86.196 123.407 86.318zM117.908 83.413c-0.147-0.095-0.297-0.189-0.446-0.285 -0.013 0.026-0.026 0.053-0.041 0.078C117.585 83.276 117.75 83.344 117.908 83.413zM123.985 85.67c-0.239-0.989-1.758-2.967-3.521-5.132C121.849 82.963 123.147 85.09 123.985 85.67zM120.465 80.538c-0.095-0.163-0.188-0.329-0.281-0.494 -0.026 0.018-0.055 0.037-0.079 0.054C120.224 80.245 120.348 80.393 120.465 80.538z" fill="url(#SvgjsRadialGradient4627)" opacity="1"></path><path id="SvgjsPath4630" d="M126.255 78.622c-0.034-0.004-0.066-0.01-0.1-0.014 -0.011 0.196-0.022 0.393-0.034 0.586C126.164 79.004 126.211 78.812 126.255 78.622zM126.12 79.193c-0.627 2.724-1.114 5.17-0.892 6.162C125.724 84.467 125.95 81.984 126.12 79.193zM125.229 85.356c-0.119 0.212-0.25 0.344-0.401 0.36 -0.15 0.014-0.306-0.091-0.464-0.276 -0.006 0.243-0.06 0.421-0.188 0.505 -0.128 0.083-0.313 0.063-0.539-0.03 0.107 0.219 0.143 0.403 0.069 0.536 -0.075 0.133-0.249 0.201-0.489 0.224 0.194 0.144 0.312 0.289 0.308 0.441 -0.003 0.152-0.126 0.292-0.327 0.428 0.24 0.034 0.41 0.111 0.478 0.247 0.067 0.136 0.025 0.318-0.091 0.532 0.229-0.081 0.414-0.093 0.537-0.003 0.123 0.088 0.17 0.27 0.164 0.514 0.166-0.177 0.325-0.278 0.478-0.253 0.148 0.02 0.274 0.16 0.382 0.379 0.064-0.236 0.16-0.396 0.306-0.447 0.143-0.051 0.318 0.014 0.515 0.157 -0.051-0.237-0.041-0.423 0.063-0.536s0.29-0.136 0.532-0.102c-0.157-0.187-0.238-0.356-0.195-0.504 0.039-0.148 0.192-0.255 0.423-0.336 -0.226-0.091-0.372-0.206-0.407-0.354 -0.032-0.149 0.053-0.316 0.218-0.495 -0.243 0.023-0.427-0.009-0.524-0.125 -0.099-0.115-0.102-0.303-0.039-0.538 -0.201 0.134-0.38 0.19-0.521 0.132C125.37 85.756 125.281 85.593 125.229 85.356zM126.033 85.683c0.852-0.558 2.206-2.65 3.652-5.04C127.865 82.76 126.298 84.699 126.033 85.683zM129.685 80.641c0.126-0.145 0.255-0.292 0.38-0.44 -0.027-0.019-0.052-0.04-0.078-0.06C129.886 80.31 129.785 80.477 129.685 80.641zM126.597 86.345c1.013-0.099 3.187-1.322 5.577-2.767C129.578 84.609 127.287 85.598 126.597 86.345zM132.173 83.579c0.165-0.065 0.333-0.131 0.501-0.195 -0.014-0.029-0.029-0.056-0.04-0.083C132.481 83.392 132.328 83.487 132.173 83.579zM126.783 87.194c0.943 0.382 3.437 0.309 6.227 0.142C130.231 87.042 127.745 86.853 126.783 87.194zM133.01 87.336c0.158 0.019 0.32 0.036 0.48 0.053 0.001-0.027 0.002-0.055 0.003-0.083C133.332 87.316 133.168 87.326 133.01 87.336zM126.558 88.033c0.655 0.78 2.898 1.871 5.442 3.017C129.679 89.499 127.565 88.177 126.558 88.033zM132 91.049c0.117 0.08 0.236 0.161 0.354 0.238 0.013-0.021 0.024-0.042 0.035-0.063C132.262 91.168 132.129 91.109 132 91.049zM125.964 88.67c0.221 0.993 1.699 3.004 3.419 5.205C128.048 91.419 126.791 89.266 125.964 88.67zM129.384 93.872c0.059 0.106 0.117 0.217 0.176 0.325 0.018-0.013 0.034-0.023 0.053-0.034C129.536 94.065 129.458 93.967 129.384 93.872zM125.146 88.96c-0.267 0.982 0.107 3.447 0.608 6.195C125.711 92.361 125.601 89.87 125.146 88.96zM125.754 95.155c0.002 0.11 0.004 0.224 0.004 0.337 0.021-0.003 0.038-0.005 0.058-0.005C125.796 95.376 125.775 95.264 125.754 95.155zM124.285 88.834c-0.693 0.748-1.508 3.102-2.341 5.769C123.205 92.11 124.265 89.853 124.285 88.834zM121.944 94.603c-0.05 0.096-0.099 0.195-0.147 0.295 0.017 0.008 0.032 0.013 0.051 0.021C121.879 94.815 121.913 94.707 121.944 94.603zM123.584 88.324c-0.964 0.338-2.779 2.048-4.756 4.021C121.104 90.724 123.091 89.215 123.584 88.324zM118.828 92.345c-0.095 0.067-0.194 0.138-0.29 0.206 0.014 0.016 0.027 0.028 0.041 0.045C118.661 92.511 118.746 92.428 118.828 92.345zM123.197 87.546c-1.01-0.148-3.409 0.521-6.078 1.349C119.889 88.518 122.345 88.106 123.197 87.546zM117.119 88.897c-0.131 0.018-0.265 0.034-0.4 0.054 0.005 0.021 0.011 0.042 0.018 0.063C116.865 88.977 116.993 88.936 117.119 88.897zM123.217 86.677c-0.824-0.599-3.263-1.121-6.01-1.627C119.833 86 122.202 86.777 123.217 86.677zM117.207 85.05c-0.143-0.052-0.29-0.106-0.432-0.158 -0.008 0.026-0.016 0.051-0.021 0.077C116.907 84.995 117.06 85.022 117.207 85.05zM123.637 85.917c-0.45-0.911-2.363-2.506-4.561-4.23C120.959 83.747 122.693 85.538 123.637 85.917zM119.076 81.688c-0.118-0.13-0.236-0.26-0.355-0.391 -0.021 0.022-0.041 0.044-0.061 0.065C118.8 81.471 118.941 81.58 119.076 81.688zM124.363 85.44c0.024-1.017-0.93-3.321-2.073-5.868C122.999 82.273 123.704 84.663 124.363 85.44zM122.29 79.572c-0.049-0.182-0.096-0.366-0.144-0.55 -0.029 0.01-0.062 0.021-0.09 0.032C122.134 79.227 122.214 79.401 122.29 79.572z" fill="url(#SvgjsRadialGradient4631)" opacity="1"></path><path id="SvgjsPath4634" d="M128.334 87c0 1.842-1.492 3.333-3.333 3.333s-3.335-1.492-3.335-3.333c0-1.841 1.494-3.334 3.335-3.334C126.844 83.666 128.334 85.159 128.334 87z" fill="#a1753a" stroke-width="none" opacity="1" stroke="none"></path><path id="SvgjsPath4635" d="M128.334 87c0 1.842-1.492 3.333-3.333 3.333s-3.335-1.492-3.335-3.333c0-1.841 1.494-3.334 3.335-3.334C126.844 83.666 128.334 85.159 128.334 87z" fill="#000000" stroke-width="none" opacity="0.9"></path><path id="SvgjsPath4636" d="M120.35 90.893c0.636-0.427 1.5-0.255 1.927 0.38 0.427 0.637 0.258 1.5-0.379 1.927 -0.638 0.429-1.5 0.258-1.927-0.378C119.544 92.185 119.713 91.32 120.35 90.893L120.35 90.893z" fill="url(#SvgjsLinearGradient4637)" opacity="0.5"></path><path id="SvgjsPath4640" d="M127.635 86.536c-0.356 0.53-1.373 0.468-2.275-0.136 -0.903-0.605-1.346-1.526-0.991-2.055l0.001-0.001c0.354-0.53 1.372-0.469 2.274 0.137 0.903 0.604 1.346 1.524 0.992 2.054C127.635 86.536 127.635 86.536 127.635 86.536z" fill="url(#SvgjsLinearGradient4641)" opacity="0.5"></path><path id="SvgjsPath4644" d="M131.682 85.121c-0.806 1.237-2.884 1.31-4.641 0.166 -1.756-1.145-2.527-3.075-1.722-4.311 0.806-1.235 2.884-1.31 4.641-0.166C131.715 81.956 132.485 83.887 131.682 85.121L131.682 85.121z" fill="url(#SvgjsLinearGradient4645)" opacity="0.75"></path></g></g></g><g id="svga-group-eyesfront-right"><path id="SvgjsPath4590" d="M126 62.999c-9.94 0-18 11.193-18 25.001 0 13.808 8.06 24.999 18 24.999S144 101.808 144 88C144 74.191 135.94 62.999 126 62.999zM135.725 90.922c0 0-2.203 2.906-9.723 2.969 -3.778 0.031-10.063-0.366-12.319-2.213 0.001 0.001 0.002 0.002 0.003 0.004 -0.872-0.682-1.357-1.541-1.316-2.623 0.02-0.509 0.234-1.09 0.585-1.702 0.004 0 0.008 0 0.012 0 1.811-3.068 7.566-6.887 13.547-7.316 2.471-0.178 4.854-0.266 6.578 0.143 3.778 0.895 5.518 2.173 5.923 3.078 0.049 0.152 0.082 0.305 0.097 0.454 -0.083 1.013-0.004 1.565-0.719 3.156 0 0 0.011-0.013 0.028-0.036C137.732 88.283 136.663 89.679 135.725 90.922z" fill="#f0c7b1" stroke-width="none" opacity="1" stroke="none"></path><path id="SvgjsPath4591" d="M124.045 70c-10.416-0.043-18.875 6.635-18.902 14.92 -0.023 8.284 8.398 15.033 18.813 15.08 10.418 0.043 18.875-6.635 18.902-14.919C142.881 76.796 134.461 70.047 124.045 70zM138.42 86.836c-0.688 1.447-1.757 2.843-2.695 4.086 0 0-2.203 2.906-9.723 2.969 -3.778 0.031-10.063-0.366-12.319-2.213 0.001 0.001 0.002 0.002 0.003 0.004 -0.872-0.682-1.357-1.541-1.316-2.623 0.02-0.509 0.234-1.09 0.585-1.702 0.004 0 0.008 0 0.012 0 1.811-3.068 7.566-6.887 13.547-7.316 2.471-0.178 4.854-0.266 6.578 0.143 3.778 0.895 5.518 2.173 5.923 3.078 0.049 0.152 0.082 0.305 0.097 0.454 -0.083 1.013-0.004 1.565-0.719 3.156C138.392 86.872 138.402 86.859 138.42 86.836z" fill="url(#SvgjsRadialGradient4592)" opacity="1"></path><path id="SvgjsPath4596" d="M135.725 90.922c0.938-1.243 2.008-2.639 2.695-4.086 -0.018 0.023-0.028 0.036-0.028 0.036 0.715-1.591 0.636-2.143 0.719-3.156 -0.015-0.149-0.048-0.301-0.097-0.454 -0.405-0.904-2.145-2.183-5.923-3.078 -1.724-0.409-4.107-0.321-6.578-0.143 -5.98 0.429-11.736 4.248-13.547 7.316 -0.004 0-0.008 0-0.012 0 -0.351 0.611-0.565 1.192-0.585 1.702 -0.041 1.082 0.444 1.94 1.316 2.623 -0.001-0.001-0.002-0.002-0.003-0.004 2.256 1.847 8.541 2.244 12.319 2.213C133.521 93.828 135.725 90.922 135.725 90.922z" fill="url(#SvgjsRadialGradient4597)" opacity="1"></path><path id="SvgjsPath4600" d="M111.744 84.111c6.821-5.453 10.878-7.558 19.341-7.756 -5.832-0.553-11.102 1.27-14.204 3.22C115.43 80.487 112.744 83.237 111.744 84.111z" fill="#c27b55" stroke-width="none" opacity="1" stroke="none"></path><path id="SvgjsPath4601" d="M135.725 90.86c-0.332 0.966-1.887 2.297-2.73 2.721 -1.74 0.873-5.785 0.985-7.732 0.953 -2.985-0.049-8.257-0.381-11.579-2.931 2.256 1.819 8.541 2.21 12.319 2.179C133.521 93.721 135.725 90.86 135.725 90.86zM130.529 77.594c-7.113-0.373-15.748 4.565-18.236 9 -0.076 0.137-0.127 0.512-0.021 0.626 0.106 0.114 0.424 0.118 0.693 0.13 1.811-3.021 7.566-6.781 13.547-7.204 2.471-0.174 4.854-0.261 6.578 0.141 4.466 1.041 6.091 2.613 6.02 3.477 -0.083 0.997-0.004 1.541-0.719 3.107 0 0 1.749-2.54 3.097-4.895 0.661-1.156 0.917-1.355 2.362-2.363 0 0-1.365 0.124-4.002 0.024C138.008 79.568 135.476 77.854 130.529 77.594z" fill="#000000" stroke-width="none" opacity="1" stroke="none"></path></g></g><g id="svga-group-facehighlight-single" ><path id="SvgjsPath2753" d="M140.204 113.007c0.035 22.275-17.995 40.365-40.273 40.396 -22.274 0.036-40.361-17.993-40.396-40.272C59.501 90.857 77.53 72.77 99.808 72.735 122.083 72.701 140.171 90.73 140.204 113.007z" fill="url(#SvgjsRadialGradient2754)" opacity="1"></path><path id="SvgjsPath2757" d="M135,55.999c0,19.329-15.671,35-35,35c-19.329,0-35-15.671-35-35s15.671-35,35-35C119.329,20.999,135,36.67,135,55.999z" fill="url(#SvgjsRadialGradient2758)" opacity="1"></path></g><g id="svga-group-eyebrows-left" ><path id="SvgjsPath4666" d="M54.351 74.996c9.743-15.115 36.491 5.148 38.018-1.191 0.299-1.271-0.407-2.015-1.564-2.492C77.184 65.807 59.156 61.18 54.351 74.996z" fill="#2a232b" stroke-width="none" opacity="1"></path></g><g id="svga-group-eyebrows-right" ><path id="SvgjsPath4667" d="M145.649 74.996c-9.743-15.115-36.491 5.148-38.018-1.191 -0.299-1.271 0.407-2.015 1.564-2.492C122.816 65.807 140.844 61.18 145.649 74.996z" fill="#2a232b" stroke-width="none" opacity="1"></path></g><g id="svga-group-nose-single" ><path id="SvgjsPath3009" d="M97.363 92.602c0 0 0.055 7.962-0.458 9.512 -1.129 3.405-6.123 11.297-5.49 13.486 0.985 3.403 5.817 3.652 8.259 3.771 2.338 0.115 7.091-0.055 7.857-2.267 0.312-0.9-0.361-3.197-0.361-3.197s-2.165 2.228-7.266 1.98c-1.456-0.07-3.824-1.5-3.851-3.517 -0.036-2.734 1.805-5.87 2.135-8.583C98.438 101.726 97.363 92.602 97.363 92.602z" fill="#e1ac8f" stroke-width="none" opacity="1"></path><path id="SvgjsPath3010" d="M104.209 117.032c0.881 0 1.119 0.234 1.119 0.522 0 0.29-0.274 0.735-1.119 0.522 -0.928-0.231-2.548-0.124-2.548-0.124S103.328 117.032 104.209 117.032zM95.8 117.032c-0.881 0.001-1.119 0.236-1.119 0.525 0 0.288 0.265 0.704 1.119 0.521 0.941-0.201 2.548-0.125 2.548-0.125S96.682 117.035 95.8 117.032zM107.169 113.906c0 0 1.22 1.384 0.966 2.847 -0.246 1.421-2.709 2.047-2.709 2.047s1.71-1.085 1.917-2.403C107.439 115.781 107.169 113.906 107.169 113.906zM92.12 112.482c0 0-0.89 1.938-0.632 3.117 0.467 2.13 3.032 2.982 3.032 2.982s-1.601-1.462-2.17-2.753C91.729 114.42 92.12 112.482 92.12 112.482z" fill="#c27b55" stroke-width="none" opacity="1"></path><path id="SvgjsPath3011" d="M104.166 114.937c0.854-0.637 0.939-1 0.763-1.237 -0.176-0.238-0.688-0.389-1.403 0.379 -0.788 0.846-2.502 1.47-2.502 1.47S103.312 115.574 104.166 114.937z" fill="#ffe4d6" stroke-width="none" opacity="1"></path></g><g id="svga-group-hair-front" ><path id="SvgjsPath4830" d="M142.198 28.734c-9.237-8.79-44.549-0.761-55.197 0.239C76.86 29.755 63.475-1.366 43.396 78.452c0.045 3.839 1.29 10.633 2.796 15.468 0.145-0.101 0.286-0.208 0.431-0.306 0 0-0.518 3.257 6.058 14.39 -0.348-8.073 1.212-13.893 2.492-21.414 15.709-19.987 30.389-24.674 41.56-28.155C89.233 67.19 81.814 75.225 78.568 84c13.647-9.576 32.409-28.884 32.409-28.884S109.574 59.819 83.292 84c10.943-2.679 31.345-13.679 45.636-34.951 2.746 4.5-12.4 30.794-12.827 31.801 7.663-6.086 18.079-14.636 20.755-24.62 0 0 1.571 4.043 2.662 8.635 2.878 12.162 2.904 27.281 3.429 31.125 1.665-8.721 1.925-18.482 1.922-18.355 3.905 17.893 0.419 30.394 0.352 34.724 5.198-10.435 10.604-22.897 12.177-34.534C157.396 77.824 145.779 27.134 142.198 28.734z" fill="#2a232b" stroke-width="none" opacity="0.1"></path><path id="SvgjsPath4831" d="M170.618 67.866c-0.08-5.39-1.12-13.92-2.921-18.78 3.28 3.39 7.41 7.39 10.78 9.5 -4.46-3.86-5.841-7.16-15.921-28.3 -6.189-12.98-10.287-26.75-22.378-28.37 -4.079-0.56-8.05 0.99-11.779 2.59 -9.61-8.79-21.59-12.331-32.67-11.331 -33.88 2.51-42.917 24.391-61.037 28.771 2.84 0.83 7.616-0.468 10.336-1.748 -3.75 5.06-2.422 4.531-10.692 12.801 -3.37 3.34-6.483 7.444-10.543 9.854 5.449-0.681 8.312-4.834 16.282-9.104 -1.15 1.84-5.249 8.094-11.929 14.494 -2.87 2.74-7.599 6.584-10.899 8.914 2.41-0.96 9.489-3.726 15.608-9.152 -3.169 4.531-12.261 12.94-8.145 29.881 0.832-7.406-0.001-16.415 7.048-20.895 -0.784 3.301-3.814 10.222-1.603 17.708H41.09c0.047 3.839 1.341 10.934 2.909 15.769 0.151-0.101 0.297-0.208 0.449-0.306 0 0 0.502 3.257 7.343 14.39 -0.364-8.073 0.222-13.893 1.553-21.414 16.345-19.987 31.619-24.674 43.241-28.155 -7.804 8.755-13.814 18.837-17.193 27.612 11.046-11.66 33.834-29.767 33.834-29.767s-0.364 4.866-27.712 29.046c9.449-5.795 29.698-15.006 44.566-36.278 2.858 4.5-10.819 30.794-11.264 31.801 7.974-6.086 14.646-16.636 17.435-26.62 0 0 3.716 6.043 4.847 10.635 2.995 12.162 1.984 22.281 2.528 26.125 1.732-8.721 3.042-13.482 3.039-13.355 4.066 17.893-0.604 32.394-0.672 36.724 5.406-10.434 12.072-24.997 13.709-36.634H171.3C170.631 69.944 171.127 69.932 170.618 67.866z" fill="#2a232b" stroke-width="none" opacity="1"></path><path id="SvgjsPath4832" d="M177.236 37.286c-3.811-0.17-5.876 0.099-10.356-0.261 -0.67-1.53-2.738-5.55-3.438-7.07C166.941 33.055 174.206 36.976 177.236 37.286z" fill="#0c080c" stroke-width="none" opacity="1"></path><path id="SvgjsPath4833" d="M40.385 33.266c-7.787 4.224-11.305 8.458-15.656 9.179 4.06-2.41 6.46-5.99 9.83-9.33 8.27-8.27 7.26-8.3 11.01-13.36 -2.604 1.225-7.117 2.837-9.989 2.247C49.1 20.922 63.972 3.71 80 6 63.505 7.833 49.533 19.744 40.385 33.266zM118.817 77.397c11.188-23.146 11.904-26.578 11.264-31.801 -13.432 19.217-40.876 34.016-44.566 36.278 16.33-14.438 23.567-24.358 26.301-27.924C89.192 71.938 89.208 72.234 79.392 82.595c5.663-14.707 2.783-11.447 17.193-27.612 -6.263 1.876-11.361 3.689-15.442 5.618 0.567-1.342 0.738-2.05 2.64-4.833 7.124-4.361 21.086-15.032 31.086-18.481 -3.529 2.783-5.345 6.283-8.84 9.096 5.358-1.356 11.907-2.056 22.24-7.796 -0.553 0.442 17.922-8.631 11.935-19.03 3.684 2.625 0.95 13.336-0.784 23.305 3.888 5.373 4.755 11.915 6.033 18.583 0.121-2.193 0.47-7.496 0.016-9.648 2.284 5.926 5.567 13.815 5.526 22.481C155.411 62.569 152 52 152 41c3.791 6.331 5.29 17.906 6.192 25.033 0.916-4.582 1.52-8.026-0.544-14.033 1.302 1.624 3.089 2.834 4.352 5 -1.721-9.445-4.858-16.042-9.204-22.833C156.921 38.936 163 43 165 49c-1-11-5-22-12-31 3.743 4.367 7.097 8.734 10.061 13.343 9.618 20.183 11.033 23.448 15.417 27.242 -3.37-2.11-7.5-6.109-10.78-9.5 1.801 4.86 2.841 13.39 2.921 18.78 0.509 2.065 0.013 2.178 0.682 6.505h-11.597c-1.637 11.637-8.303 26.1-13.709 36.534 0.066-4.227 4.514-18.146 0.944-35.449 -0.088-0.424-0.175-0.847-0.272-1.275 0.003-0.127-1.307 4.635-3.039 13.355 -0.544-3.844 0.467-13.963-2.528-26.125 -1.131-4.592-4.847-10.635-4.847-10.635C128.832 69.641 120.864 76.769 118.817 77.397zM94.869 43.184C85.796 45.839 77 53 70 60c2-3 3-7 6-10 5-10 14-17 21-25 -15 9-24 22-35 35 3-6 6-14 11-19 -10 5-12 15-19 23 4-32 34-69 69-58C88.059-7.698 53.547 29.071 45.395 68.148 45.361 64.358 45.921 43.079 54 35c-8 6-10 16-15 23 -0.814-4.072 1.024-7.481 2.274-10.767 -1.054 1.576-3.016 2.758-4.23 4.512C39.577 43.671 42.073 35.284 50 30c-4.726 2.363-8.216 5.96-12.902 8.362 -2.15 2.944-5.13 6.637-8.769 10.124 -2.87 2.74-6.98 5.88-10.28 8.21 2.41-0.96 9.3-4.7 15.47-9.49 -2.95 4.77-12.27 12.74-8.9 29.41 0.33-7.42 0.52-15.68 7.57-20.16C31.405 59.757 28.145 67.514 30.356 75H41.09c0.047 3.839 1.341 10.633 2.909 15.468 0.151-0.101 0.297-0.208 0.449-0.306 0 0 0.318 1.985 3.66 8.081 0.96 1.751 2.157 3.824 3.684 6.309 -0.364-8.073 0.222-13.893 1.553-21.414 9.843-12.036 19.295-18.52 27.798-22.537C81.859 58.904 84.681 51.958 94.869 43.184z" fill="#1b141c" stroke-width="none" opacity="1"></path><path id="SvgjsPath4834" d="M39.14 35.028C50.711 12.323 73.942 5.8 82.235 5.829 64.286 9.892 51.536 17.819 39.14 35.028zM112.286 4.067C99.313 3.229 75.107 11.58 62.155 38.708 76.494 13.067 102.913 3.465 112.286 4.067zM144.313 7.883c-0.668-0.242-1.258-0.718-1.929-0.979 -7.811-3.035-14.957 2.381-15.565 7.654C127.992 9.383 135.786 4.803 144.313 7.883zM138.188 11.621c12.901-3.002 23.234 21.063 23.497 22.066C159.6 25.7 150.582 7.854 138.528 10.768c-3.965 0.959-7.038 3.953-9.309 7.198C131.586 15.113 134.468 12.47 138.188 11.621zM92.531 49.976c7.02-5.938 39.023-15.771 37.895-29.705C130.234 32.882 105.025 39.407 92.531 49.976zM123.893 16.667c-2.088-0.968-6.35-4.938-17.326 1.636C88.869 28.902 77.858 46.716 75.207 51.149 83.655 39.44 109.684 10.093 123.893 16.667z" fill="#0c080c" stroke-width="none" opacity="1"></path><path id="SvgjsPath4835" d="M77.774 9.337C58.393 16.2 45.395 30.218 45.395 30.218 54.68 20.083 63.288 12.957 77.774 9.337zM52.747 32.614c1.826-3.136 16.3-19.207 24.673-22.069C68.571 12.888 57.47 24.503 52.747 32.614zM72.415 30.195c0 0 14.956-18.491 31.382-22.259C90.858 9.004 79.387 19.403 72.415 30.195zM91.168 35.718c0.92-1.296 18.853-16.116 26.805-18.162C109.279 18.78 93.755 32.075 91.168 35.718zM106.619 29.037c1.081-1.479 8.328-8.794 17.066-9.925C115.821 19.303 111.162 22.824 106.619 29.037zM98.693 39.328c4.613-6.021 17.328-8.604 25.865-17.449C116.765 29.092 105.065 31.012 98.693 39.328zM114.135 42.83c1.002 0 18.698-9.222 22.402-13.077 3.405-3.543 3.938-7.255 1.396-8.925 3.425 3.821-1.259 7.586-3.095 9.151C133.101 31.461 125.346 36.745 114.135 42.83 114.136 42.83 115.105 42.303 114.135 42.83zM133.194 36.025c6.469-4.646 10.608-13.196 6.736-16.54 -1.339-1.156-3.436-1.577-5.168-1.556 1.738-0.021 4.151 0.622 5.297 1.993 4.005 4.778-3.688 12.915-8.86 16.402 -7.433 5.012-16.3 7.966-24.96 10.046C115.538 44.373 125.367 41.646 133.194 36.025zM74.46 34.228c0 0 12.903-15.915 26.442-21.077 1.596-0.608 3.241-0.829 4.901-1.161C93.18 13.181 81.436 23.811 74.46 34.228zM71.001 43.084c1-0.716 18.004-20.675 33.561-26.663C91.336 19.74 78.568 31.611 71.001 43.084zM159.665 35.255c-0.596-1.001-5.457-18.448-15.779-16.404C150.81 18.188 156.162 28.076 159.665 35.255zM150.497 54.228c0.147-4.855 2.044-15.259-6.717-23.478C148.394 36.237 150.662 45.406 150.497 54.228z" fill="#3a353a" stroke-width="none" opacity="1"></path><path id="SvgjsPath4836" d="M183.02 61.345c-8.591-7.05-8.95-8.69-15.57-23.75 4.52 0.38 8.39 0.06 12.06-0.2 -7.56-0.74-13.149-6.29-16.029-8.68 -7.57-16.09-13.48-31.96-30.74-26.41 -1.36 0.44-2.71 0.96-4.04 1.57 -7.68-8.32-19.42-12.54-30.32-12.49 -31.79 0.12-46.83 23.91-60.24 29.1 -1.6 0.62-3.38 1.09-5.08 1.49 3.02 1.09 5.67 1.29 10.67-0.75 -6.2 8.24-3.19 3.92-10.56 11.66 -3.32 3.46-6.43 8.08-11.15 10.25 3.97 0.5 6.69-0.69 10.14-3.04 2.39-1.61 4.84-3.66 6.64-4.95 -7.24 11.04-24.31 23.26-24.31 23.26 5.59-1.06 11.42-4.38 16.11-8.14 -0.17 0.23-0.35 0.46-0.52 0.69 -2.46 3.25-4.83 6.75-5.96 10.71 -2.02 7.04-1.06 13.639 1.46 20.489 -0.64-6.07-0.74-18.58 5.67-24.379C30.026 61.248 27.022 68.061 29.164 75h0.875 0.317c-2.211-7.485 1.049-15.243 1.833-18.544 -7.05 4.48-7.24 12.74-7.57 20.16 -3.37-16.67 5.95-24.64 8.9-29.41 -6.17 4.79-13.06 8.53-15.47 9.49 3.3-2.33 7.41-5.47 10.28-8.21 6.68-6.4 11.16-13.52 12.31-15.36 -7.97 4.27-11.51 8.59-15.91 9.32 4.06-2.41 6.46-5.99 9.83-9.33 8.27-8.27 7.26-8.3 11.01-13.36 -2.72 1.28-7.53 2.99-10.37 2.16 18.12-4.38 26.65-25.73 60.53-28.24 11.081-1 23.06 2.04 32.67 10.83 3.729-1.6 7.7-2.95 11.779-2.39 12.091 1.62 15.591 15.19 21.78 28.17 10.08 21.14 11.66 24.14 16.12 28 -3.37-2.11-7.5-6.41-10.78-9.8 1.801 4.86 3.04 13.19 3.12 18.58 -2.05-6.78-5.83-12.26-9.87-17.39 0.851 1.22 8.21 10.8 10.021 22.35 -3.05-6.02-6.92-11.45-11.21-16.62 6.775 9.128 9.306 14.798 11.318 19.136 0.264 0 0.029-0.217 1.079 0.006 -0.079-0.174-0.238-0.532-0.317-0.703 -0.061-1 1.05-12.39-2.931-23.38C173.339 55.875 175.669 58.795 183.02 61.345zM176.439 37.186c-3.811-0.17-4.88-0.2-9.36-0.56 -0.67-1.53-2.34-4.35-3.04-5.87C167.539 33.855 173.409 36.875 176.439 37.186zM156.85 87.045c-2.49 9.14-6.841 19.28-11.99 26.3 1.87-13.8 3.479-27.76 1.779-37.28 -0.569 5.73-1.899 11.2-3.64 16.67 0.41-7.11-0.35-14.37-1.02-21.44 -0.341-3.52-0.83-7.01-1.57-10.47 -0.7-3.29-2.34-6.27-3.84-9.25 -1.78 5.84-4.65 10.85-7.84 16.03 -3.07 4.99-6.88 9.18-11.92 12.14 3.25-5.36 6.229-12.75 8.229-16.96 1.84-3.88 5.39-10.32 4.9-16.33 -5.561 8.7-14.36 16.58-22.58 22.81 -7.86 5.96-24.62 14.67-25.62 15.05 0.2-0.22 9.54-8.66 15.53-14.51 11.36-11.08 13.21-13.3 14.78-15.65 -5.8 5.05-11.42 10.3-17.24 15.33 -5.66 4.89-11.44 9.71-16.74 15.01 1.5-5.41 3.99-10.33 6.6-15.03 2.85-5.11 6.46-9.39 10.58-13.51 -23.378 7.551-39.08 24.38-41.29 27.14 -0.51 4.42-1.17 19.86-0.71 26.4 -5.932-10.697-18.602-27.757-11.658-54.876 -2.687 13.262 0.833 34.105 9.848 48.787 -0.29-6.43 0.32-13.03 1.44-19.36 -1.86 1.91-3.76 3.72-5.87 5.34 1.09-6.52 4.68-12.63 7.9-18.31 3.06-5.37 6.49-10.68 11.13-14.84 -3.67 4.46-6.98 9.89-9.99 15.14 -3.3 5.75-6.98 12.73-8.18 16.9 6.77-6.6 10.3-14.29 26.97-24.64 9.7-6.02 15.45-7.08 21.66-8.94 1.07-1.1 2.13-2.19 3.17-3.32 1.99-2.16 3.74-4.46 5.47-6.83 -6.689 10.42-8.76 10.79-13.779 17.45 -7.61 10.09-8.34 13.08-11.13 19.26 6.1-6.44 9.41-8.49 15.85-14.6 5.07-4.82 16.58-13.46 16.89-13.98 1.25-2.11 2.46-5.22 4.15-8.13 -1.7 3.56-2.63 7.37-4.78 10.7 -2.16 3.34-5.29 6.29-7.97 9.21 -4.42 4.81-10.89 10.75-17.41 16.21 4.99-3.06 10.19-5.66 15.03-8.99 4.7-3.23 9.27-6.71 13.56-10.48 8.301-7.28 15.11-15.79 20.34-25.49 -1.63 3.43-3.42 6.79-5.46 9.99 0.631 3.72-0.199 7.31-1.569 10.78 -0.41 1.04-7.29 16.5-9.37 20.14 2.96-2.26 5.1-5.08 7.16-8.15 6.95-10.4 10.42-17.72 12.35-30.55 -0.399 4.22-0.979 8.44-2.11 12.54 2.061 5.1 3.341 6.48 4.5 10.88 2.12 8.04 2.54 16.39 2.32 24.67 2.26-11.38 3.4-22.64 1.76-34.21 2.41 13.95 1.49 22.32 1.49 22.32 0.5 2.2 0.88 4.42 1.16 6.66 1.21 9.68 0.1 19.31-1.81 28.82 9.399-18.14 11.949-43.65 7.229-63.271 2.04 6.83 3.16 13.82 3.34 20.95 0.181 6.9-0.05 14.01-1.229 20.82 2.29-5.99 4.412-15.707 4.412-17.556C160.342 74.499 158.489 81.005 156.85 87.045z" fill="#000000" stroke-width="none" opacity="1"></path></g><g id="svga-group-glasses-single" ><path id="SvgjsPath4825" d="M100,18.13L100,18.13L100,18.13L100,18.13z" fill="#26120b" stroke-width="none" opacity="1"></path></g></g></g><rect id="SvgjsRect1033" width="200" height="15" x="0" y="185" fill="#ecf0f1" opacity="0.5" style="display:none;"></rect><text id="SvgjsText1034" font-family="&quot;Roboto&quot;, &quot;Helvetica Neue&quot;, Helvetica, Arial, sans-serif" style="font-size:0.84em;font-family:&quot;Roboto&quot;, &quot;Helvetica Neue&quot;, Helvetica, Arial, sans-serif;text-anchor:middle;font-weight:400;display:none;" font-size="0.84em" text-anchor="middle" font-weight="400" fill="#000000" x="100" y="185"><tspan id="SvgjsTspan1035" dy="1.2em" x="100" style="font-size:0.84em;font-family:&quot;Roboto&quot;, &quot;Helvetica Neue&quot;, Helvetica, Arial, sans-serif;text-anchor:middle;font-weight:400;">Created on AvatarMaker.com</tspan></text></g><defs id="SvgjsDefs1001"><radialGradient id="SvgjsRadialGradient2754" cx="100" cy="113" r="40" gradientUnits="userSpaceOnUse" class="svga-on-canvas-facehighlight-gradient-single-0"><stop id="SvgjsStop2755" stop-opacity="0.5" stop-color="#ffe4d6" offset="0" ></stop><stop id="SvgjsStop2756" stop-opacity="0" stop-color="#f0c7b1" offset="0.9" ></stop></radialGradient><radialGradient id="SvgjsRadialGradient2758" cx="100" cy="57" r="36" gradientUnits="userSpaceOnUse" class="svga-on-canvas-facehighlight-gradient-single-1"><stop id="SvgjsStop2759" stop-opacity="0.5" stop-color="#ffe4d6" offset="0" ></stop><stop id="SvgjsStop2760" stop-opacity="0" stop-color="#f0c7b1" offset="0.9" ></stop></radialGradient><radialGradient id="SvgjsRadialGradient4545" cx="125.675" cy="87.605" r="15.179" gradientTransform="matrix(-0.9148 0.0479 0.0523 0.9986 184.4314 -6.6017)" gradientUnits="userSpaceOnUse" class="svga-on-canvas-eyesback-gradient-left-0"><stop id="SvgjsStop4546" stop-opacity="1" stop-color="#ffffff" offset="0" ></stop><stop id="SvgjsStop4547" stop-opacity="1" stop-color="#fdfefe" offset="0.544" ></stop><stop id="SvgjsStop4548" stop-opacity="1" stop-color="#f6f8f9" offset="0.74" ></stop><stop id="SvgjsStop4549" stop-opacity="1" stop-color="#eaeff2" offset="0.879" ></stop><stop id="SvgjsStop4550" stop-opacity="1" stop-color="#d9e3e8" offset="0.992" ></stop><stop id="SvgjsStop4551" stop-opacity="1" stop-color="#d8e2e7" offset="1" ></stop></radialGradient><radialGradient id="SvgjsRadialGradient4553" cx="125.674" cy="87.605" r="15.179" gradientTransform="matrix(0.9148 0.0479 -0.0523 0.9986 15.5691 -6.6017)" gradientUnits="userSpaceOnUse" class="svga-on-canvas-eyesback-gradient-right-0"><stop id="SvgjsStop4554" stop-opacity="1" stop-color="#ffffff" offset="0" ></stop><stop id="SvgjsStop4555" stop-opacity="1" stop-color="#fdfefe" offset="0.544" ></stop><stop id="SvgjsStop4556" stop-opacity="1" stop-color="#f6f8f9" offset="0.74" ></stop><stop id="SvgjsStop4557" stop-opacity="1" stop-color="#eaeff2" offset="0.879" ></stop><stop id="SvgjsStop4558" stop-opacity="1" stop-color="#d9e3e8" offset="0.992" ></stop><stop id="SvgjsStop4559" stop-opacity="1" stop-color="#d8e2e7" offset="1" ></stop></radialGradient><radialGradient id="SvgjsRadialGradient4561" cx="125.675" cy="87.605" r="15.179" gradientTransform="matrix(-0.9148 0.0479 0.0523 0.9986 184.4314 -6.6017)" gradientUnits="userSpaceOnUse" class="svga-on-canvas-eyesfront-gradient-left-0"><stop id="SvgjsStop4562" stop-opacity="1" stop-color="#ffffff" offset="0" ></stop><stop id="SvgjsStop4563" stop-opacity="1" stop-color="#fdfefe" offset="0.544" ></stop><stop id="SvgjsStop4564" stop-opacity="1" stop-color="#f6f8f9" offset="0.74" ></stop><stop id="SvgjsStop4565" stop-opacity="1" stop-color="#eaeff2" offset="0.879" ></stop><stop id="SvgjsStop4566" stop-opacity="1" stop-color="#d9e3e8" offset="0.992" ></stop><stop id="SvgjsStop4567" stop-opacity="1" stop-color="#d8e2e7" offset="1" ></stop></radialGradient><radialGradient id="SvgjsRadialGradient4571" cx="123.905" cy="84.411" fx="137.93" fy="82.292" r="18.705" gradientTransform="matrix(0.9998 0.0208 0.0166 -0.7998 -49.1889 149.3472)" gradientUnits="userSpaceOnUse" class="svga-on-canvas-eyesfront-gradient-left-3"><stop id="SvgjsStop4572" stop-opacity="1" stop-color="#e1ac8f" offset="0" ></stop><stop id="SvgjsStop4573" stop-opacity="0.3" stop-color="#e1ac8f" offset="0.7" ></stop><stop id="SvgjsStop4574" stop-opacity="0" stop-color="#f0c7b1" offset="1" ></stop></radialGradient><radialGradient id="SvgjsRadialGradient4576" cx="69.404" cy="106.952" r="29.508" gradientTransform="matrix(1.0322 -0.0541 0.0541 1.0322 -5.8927 5.4187)" gradientUnits="userSpaceOnUse" class="svga-on-canvas-eyesfront-gradient-left-4"><stop id="SvgjsStop4577" stop-opacity="0" stop-color="#000000" offset="0.95" ></stop><stop id="SvgjsStop4578" stop-opacity="0.3" stop-color="#000000" offset="1" ></stop></radialGradient><radialGradient id="SvgjsRadialGradient4582" cx="125.674" cy="87.605" r="15.179" gradientTransform="matrix(0.9148 0.0479 -0.0523 0.9986 15.5691 -6.6017)" gradientUnits="userSpaceOnUse" class="svga-on-canvas-eyesfront-gradient-right-0"><stop id="SvgjsStop4583" stop-opacity="1" stop-color="#ffffff" offset="0" ></stop><stop id="SvgjsStop4584" stop-opacity="1" stop-color="#fdfefe" offset="0.544" ></stop><stop id="SvgjsStop4585" stop-opacity="1" stop-color="#f6f8f9" offset="0.74" ></stop><stop id="SvgjsStop4586" stop-opacity="1" stop-color="#eaeff2" offset="0.879" ></stop><stop id="SvgjsStop4587" stop-opacity="1" stop-color="#d9e3e8" offset="0.992" ></stop><stop id="SvgjsStop4588" stop-opacity="1" stop-color="#d8e2e7" offset="1" ></stop></radialGradient><radialGradient id="SvgjsRadialGradient4592" cx="123.905" cy="84.411" fx="137.93" fy="82.292" r="18.705" gradientTransform="matrix(-0.9998 0.0208 -0.0166 -0.7998 249.1889 149.3472)" gradientUnits="userSpaceOnUse" class="svga-on-canvas-eyesfront-gradient-right-3"><stop id="SvgjsStop4593" stop-opacity="1" stop-color="#e1ac8f" offset="0" ></stop><stop id="SvgjsStop4594" stop-opacity="0.3" stop-color="#e1ac8f" offset="0.7" ></stop><stop id="SvgjsStop4595" stop-opacity="0" stop-color="#f0c7b1" offset="1" ></stop></radialGradient><radialGradient id="SvgjsRadialGradient4597" cx="69.404" cy="106.952" r="29.508" gradientTransform="matrix(-1.0322 -0.0541 -0.0541 1.0322 205.8927 5.4187)" gradientUnits="userSpaceOnUse" class="svga-on-canvas-eyesfront-gradient-right-4"><stop id="SvgjsStop4598" stop-opacity="0" stop-color="#000000" offset="0.95" ></stop><stop id="SvgjsStop4599" stop-opacity="0.3" stop-color="#000000" offset="1" ></stop></radialGradient><radialGradient id="SvgjsRadialGradient4604" cx="-558.588" cy="-490.918" r="84.646" gradientTransform="matrix(0.096 -0.0248 0.0245 0.0961 140.5478 120.3577)" gradientUnits="userSpaceOnUse" class="svga-on-canvas-eyesiris-gradient-left-1"><stop id="SvgjsStop4605" stop-opacity="0.8" stop-color="#ffffff" offset="0" ></stop><stop id="SvgjsStop4606" stop-opacity="0" stop-color="#ffffff" offset="1" ></stop></radialGradient><radialGradient id="SvgjsRadialGradient4608" cx="-565.337" cy="-492.691" r="84.644" gradientTransform="matrix(0.0991 8.856325e-004 -0.0011 0.0991 130.3774 136.3533)" gradientUnits="userSpaceOnUse" class="svga-on-canvas-eyesiris-gradient-left-2"><stop id="SvgjsStop4609" stop-opacity="0.8" stop-color="#ffffff" offset="0" ></stop><stop id="SvgjsStop4610" stop-opacity="0" stop-color="#ffffff" offset="1" ></stop></radialGradient><linearGradient id="SvgjsLinearGradient4614" x1="122.283" y1="93.047" x2="123.61" y2="91.466" gradientTransform="matrix(1 0 0 1 -52 0)" gradientUnits="userSpaceOnUse" class="svga-on-canvas-eyesiris-gradient-left-5"><stop id="SvgjsStop4615" stop-opacity="1" stop-color="#ffffff" offset="0" ></stop><stop id="SvgjsStop4616" stop-opacity="0" stop-color="#ffffff" offset="1" ></stop></linearGradient><linearGradient id="SvgjsLinearGradient4618" x1="127" y1="85" x2="125" y2="87" gradientTransform="matrix(1 0 0 1 -50 0)" gradientUnits="userSpaceOnUse" class="svga-on-canvas-eyesiris-gradient-left-6"><stop id="SvgjsStop4619" stop-opacity="1" stop-color="#ffffff" offset="0" ></stop><stop id="SvgjsStop4620" stop-opacity="0" stop-color="#ffffff" offset="1" ></stop></linearGradient><linearGradient id="SvgjsLinearGradient4622" x1="130" y1="81" x2="126" y2="85" gradientTransform="matrix(1 0 0 1 -50 0)" gradientUnits="userSpaceOnUse" class="svga-on-canvas-eyesiris-gradient-left-7"><stop id="SvgjsStop4623" stop-opacity="1" stop-color="#ffffff" offset="0" ></stop><stop id="SvgjsStop4624" stop-opacity="0" stop-color="#ffffff" offset="1" ></stop></linearGradient><radialGradient id="SvgjsRadialGradient4627" cx="-578.76" cy="-490.73" r="84.646" gradientTransform="matrix(0.096 -0.0248 0.0245 0.0961 192.4794 119.8404)" gradientUnits="userSpaceOnUse" class="svga-on-canvas-eyesiris-gradient-right-1"><stop id="SvgjsStop4628" stop-opacity="0.8" stop-color="#ffffff" offset="0" ></stop><stop id="SvgjsStop4629" stop-opacity="0" stop-color="#ffffff" offset="1" ></stop></radialGradient><radialGradient id="SvgjsRadialGradient4631" cx="-584.778" cy="-487.329" r="84.644" gradientTransform="matrix(0.0991 8.856325e-004 -0.0011 0.0991 182.3104 135.839)" gradientUnits="userSpaceOnUse" class="svga-on-canvas-eyesiris-gradient-right-2"><stop id="SvgjsStop4632" stop-opacity="0.8" stop-color="#ffffff" offset="0" ></stop><stop id="SvgjsStop4633" stop-opacity="0" stop-color="#ffffff" offset="1" ></stop></radialGradient><linearGradient id="SvgjsLinearGradient4637" x1="120.284" y1="93.047" x2="121.611" y2="91.467" gradientUnits="userSpaceOnUse" class="svga-on-canvas-eyesiris-gradient-right-5"><stop id="SvgjsStop4638" stop-opacity="1" stop-color="#ffffff" offset="0" ></stop><stop id="SvgjsStop4639" stop-opacity="0" stop-color="#ffffff" offset="1" ></stop></linearGradient><linearGradient id="SvgjsLinearGradient4641" x1="127" y1="85" x2="125" y2="87" gradientUnits="userSpaceOnUse" class="svga-on-canvas-eyesiris-gradient-right-6"><stop id="SvgjsStop4642" stop-opacity="1" stop-color="#ffffff" offset="0" ></stop><stop id="SvgjsStop4643" stop-opacity="0" stop-color="#ffffff" offset="1" ></stop></linearGradient><linearGradient id="SvgjsLinearGradient4645" x1="130" y1="81" x2="126" y2="85" gradientUnits="userSpaceOnUse" class="svga-on-canvas-eyesiris-gradient-right-7"><stop id="SvgjsStop4646" stop-opacity="1" stop-color="#ffffff" offset="0" ></stop><stop id="SvgjsStop4647" stop-opacity="0" stop-color="#ffffff" offset="1" ></stop></linearGradient><radialGradient id="SvgjsRadialGradient4787" cx="100" cy="225" r="250" gradientUnits="userSpaceOnUse" class="svga-on-canvas-backs-gradient-single-1"><stop id="SvgjsStop4788" stop-opacity="0" stop-color="#594f4f" offset="0" ></stop><stop id="SvgjsStop4789" stop-opacity="1" stop-color="#4a3a3a" offset="1" ></stop></radialGradient><linearGradient id="SvgjsLinearGradient4814" x1="100" y1="141" x2="100" y2="138" gradientUnits="userSpaceOnUse" class="svga-on-canvas-mouth-gradient-single-0"><stop id="SvgjsStop4815" stop-opacity="1" stop-color="#e8b9a0" offset="0.1" ></stop><stop id="SvgjsStop4816" stop-opacity="1" stop-color="#e1ac8f" offset="1" ></stop></linearGradient><linearGradient id="SvgjsLinearGradient4851" x1="99.98" y1="171.27" x2="99.98" y2="136.351" gradientUnits="userSpaceOnUse" class="svga-on-canvas-chinshadow-gradient-single-0"><stop id="SvgjsStop4852" stop-opacity="0.8" stop-color="#e1ac8f" offset="0" ></stop><stop id="SvgjsStop4853" stop-opacity="1" stop-color="#c27b55" offset="0.7" ></stop></linearGradient></defs></svg>